<?xml version="1.0" encoding="UTF-8" standalone="no"?>
<svg
   xmlns:dc="http://purl.org/dc/elements/1.1/"
   xmlns:cc="http://creativecommons.org/ns#"
   xmlns:rdf="http://www.w3.org/1999/02/22-rdf-syntax-ns#"
   xmlns:svg="http://www.w3.org/2000/svg"
   xmlns="http://www.w3.org/2000/svg"
   xmlns:xlink="http://www.w3.org/1999/xlink"
   xmlns:sodipodi="http://sodipodi.sourceforge.net/DTD/sodipodi-0.dtd"
   xmlns:inkscape="http://www.inkscape.org/namespaces/inkscape"
   width="793.70081"
   height="1122.5197"
   viewBox="0 0 210 297"
   version="1.1"
   id="svg5"
   inkscape:version="1.0.2-2 (e86c870879, 2021-01-15)"
   sodipodi:docname="kamal logo black and white.svg"
   inkscape:export-filename="C:\Users\Heshan\OneDrive\Desktop\kamal logo 8.png"
   inkscape:export-xdpi="4984.416"
   inkscape:export-ydpi="4984.416">
  <metadata
     id="metadata57">
    <rdf:RDF>
      <cc:Work
         rdf:about="">
        <dc:format>image/svg+xml</dc:format>
        <dc:type
           rdf:resource="http://purl.org/dc/dcmitype/StillImage" />
        <dc:title />
      </cc:Work>
    </rdf:RDF>
  </metadata>
  <sodipodi:namedview
     id="namedview7"
     pagecolor="#505050"
     bordercolor="#ffffff"
     borderopacity="1"
     objecttolerance="10.0"
     gridtolerance="10.0"
     guidetolerance="10.0"
     inkscape:pageshadow="0"
     inkscape:pageopacity="0"
     inkscape:pagecheckerboard="1"
     inkscape:document-units="mm"
     showgrid="false"
     showborder="false"
     units="px"
     inkscape:zoom="0.70710678"
     inkscape:cx="-152.5351"
     inkscape:cy="315.79288"
     inkscape:window-width="1920"
     inkscape:window-height="1013"
     inkscape:window-x="-9"
     inkscape:window-y="-9"
     inkscape:window-maximized="1"
     inkscape:current-layer="layer2"
     inkscape:document-rotation="0"
     inkscape:snap-grids="true" />
  <defs
     id="defs2">
    <linearGradient
       inkscape:collect="always"
       id="linearGradient975">
      <stop
         style="stop-color:#ffeeaa;stop-opacity:1;"
         offset="0"
         id="stop971" />
      <stop
         style="stop-color:#ffeeaa;stop-opacity:0;"
         offset="1"
         id="stop973" />
    </linearGradient>
    <linearGradient
       inkscape:collect="always"
       id="linearGradient963">
      <stop
         style="stop-color:#808080;stop-opacity:1"
         offset="0"
         id="stop959" />
      <stop
         style="stop-color:#000000;stop-opacity:1"
         offset="1"
         id="stop961" />
    </linearGradient>
    <linearGradient
       inkscape:collect="always"
       id="linearGradient957">
      <stop
         style="stop-color:#808080;stop-opacity:1"
         offset="0"
         id="stop953" />
      <stop
         style="stop-color:#000000;stop-opacity:1"
         offset="1"
         id="stop955" />
    </linearGradient>
    <linearGradient
       inkscape:collect="always"
       id="linearGradient1535">
      <stop
         style="stop-color:#808080;stop-opacity:1"
         offset="0"
         id="stop1531" />
      <stop
         style="stop-color:#000000;stop-opacity:1"
         offset="1"
         id="stop1533" />
    </linearGradient>
    <marker
       style="overflow:visible"
       id="EmptyDiamondL"
       refX="0.0"
       refY="0.0"
       orient="auto"
       inkscape:stockid="EmptyDiamondL"
       inkscape:isstock="true">
      <path
         transform="scale(0.8)"
         style="fill-rule:evenodd;fill:context-fill;stroke:context-stroke;stroke-width:1.0pt"
         d="M 0,-7.0710768 L -7.0710894,0 L 0,7.0710589 L 7.0710462,0 L 0,-7.0710768 z "
         id="path6494" />
    </marker>
    <marker
       style="overflow:visible"
       id="Tail"
       refX="0.0"
       refY="0.0"
       orient="auto"
       inkscape:stockid="Tail"
       inkscape:isstock="true">
      <g
         transform="scale(-1.2)"
         id="g6436">
        <path
           style="fill:none;fill-rule:evenodd;stroke:context-stroke;stroke-width:0.8;stroke-linecap:round"
           d="M -3.8048674,-3.9585227 L 0.54352094,0"
           id="path6424" />
        <path
           style="fill:none;fill-rule:evenodd;stroke:context-stroke;stroke-width:0.8;stroke-linecap:round"
           d="M -1.2866832,-3.9585227 L 3.0617053,0"
           id="path6426" />
        <path
           style="fill:none;fill-rule:evenodd;stroke:context-stroke;stroke-width:0.8;stroke-linecap:round"
           d="M 1.3053582,-3.9585227 L 5.6537466,0"
           id="path6428" />
        <path
           style="fill:none;fill-rule:evenodd;stroke:context-stroke;stroke-width:0.8;stroke-linecap:round"
           d="M -3.8048674,4.1775838 L 0.54352094,0.21974226"
           id="path6430" />
        <path
           style="fill:none;fill-rule:evenodd;stroke:context-stroke;stroke-width:0.8;stroke-linecap:round"
           d="M -1.2866832,4.1775838 L 3.0617053,0.21974226"
           id="path6432" />
        <path
           style="fill:none;fill-rule:evenodd;stroke:context-stroke;stroke-width:0.8;stroke-linecap:round"
           d="M 1.3053582,4.1775838 L 5.6537466,0.21974226"
           id="path6434" />
      </g>
    </marker>
    <linearGradient
       inkscape:collect="always"
       xlink:href="#linearGradient1535"
       id="linearGradient1529"
       x1="-22.998613"
       y1="76.476151"
       x2="0.93544334"
       y2="121.98181"
       gradientUnits="userSpaceOnUse" />
    <linearGradient
       inkscape:collect="always"
       xlink:href="#linearGradient975"
       id="linearGradient1543"
       x1="54.375771"
       y1="62.947468"
       x2="24.606251"
       y2="97.895836"
       gradientUnits="userSpaceOnUse" />
    <linearGradient
       inkscape:collect="always"
       xlink:href="#linearGradient957"
       id="linearGradient1559"
       gradientUnits="userSpaceOnUse"
       x1="51.806004"
       y1="63.826023"
       x2="19.270132"
       y2="104.58257" />
    <linearGradient
       inkscape:collect="always"
       xlink:href="#linearGradient963"
       id="linearGradient1561"
       gradientUnits="userSpaceOnUse"
       x1="45.836723"
       y1="85.873703"
       x2="19.270132"
       y2="104.58257" />
    <filter
       inkscape:collect="always"
       style="color-interpolation-filters:sRGB"
       id="filter257"
       x="-0.023458763"
       width="1.0469175"
       y="-0.023458763"
       height="1.0469175">
      <feGaussianBlur
         inkscape:collect="always"
         stdDeviation="1.3532346"
         id="feGaussianBlur259" />
    </filter>
  </defs>
  <g
     inkscape:groupmode="layer"
     id="layer2"
     inkscape:label="Layer 2"
     style="display:inline;opacity:1">
    <g
       id="g7180"
       style="fill:#cccccc;stroke:#000000;stroke-width:2.4;stroke-miterlimit:4;stroke-dasharray:none;stroke-opacity:1"
       inkscape:export-xdpi="249.22079"
       inkscape:export-ydpi="249.22079">
      <rect
         style="fill:#cccccc;stroke:#000000;stroke-width:2.7907;stroke-miterlimit:4;stroke-dasharray:none;stroke-opacity:1"
         id="rect3798"
         width="101.95539"
         height="154.39655"
         x="-117.20951"
         y="40.487465"
         ry="1.5753959"
         transform="matrix(-0.73960038,0.67304627,0,1,0,0)" />
      <rect
         style="fill:#cccccc;stroke:#000000;stroke-width:2.7907;stroke-miterlimit:4;stroke-dasharray:none;stroke-opacity:1"
         id="rect5805"
         width="101.95539"
         height="154.39655"
         x="-86.701271"
         y="19.954008"
         ry="1.5753959"
         transform="matrix(0.73960038,0.67304627,0,1,0,0)" />
    </g>
    <rect
       style="fill:#bebebe;fill-opacity:1;stroke:#000000;stroke-width:0;stroke-linejoin:miter;stroke-miterlimit:4;stroke-dasharray:none;stroke-dashoffset:0;stroke-opacity:1"
       id="rect11524"
       width="3.6505408"
       height="152.12215"
       x="9.490654"
       y="30.818956"
       ry="3.309804"
       inkscape:export-xdpi="249.22079"
       inkscape:export-ydpi="249.22079" />
  </g>
  <g
     inkscape:groupmode="layer"
     id="layer3"
     inkscape:label="Layer 3"
     style="display:inline">
    <g
       id="g4086"
       style="fill:#000000;stroke:#ffffff;stroke-opacity:1"
       inkscape:export-xdpi="249.22079"
       inkscape:export-ydpi="249.22079">
      <rect
         style="fill:#000000;stroke:#ffffff;stroke-width:1.59939;stroke-miterlimit:4;stroke-dasharray:none;stroke-opacity:1"
         id="rect125"
         width="7.4958887"
         height="169.81905"
         x="-86.509628"
         y="13.08718"
         ry="1.7327604"
         transform="matrix(0.74123883,0.67124138,0,1,0,0)"
         inkscape:export-xdpi="249.22079"
         inkscape:export-ydpi="249.22079" />
      <rect
         style="fill:#000000;stroke:#ffffff;stroke-width:1.59939;stroke-miterlimit:4;stroke-dasharray:none;stroke-opacity:1"
         id="rect125-01"
         width="7.4958887"
         height="169.81905"
         x="-11.550707"
         y="13.08718"
         ry="1.7327604"
         transform="matrix(0.74123883,0.67124138,0,1,0,0)"
         inkscape:export-xdpi="249.22079"
         inkscape:export-ydpi="249.22079" />
      <rect
         style="fill:#000000;stroke:#ffffff;stroke-width:1.59939;stroke-miterlimit:4;stroke-dasharray:none;stroke-opacity:1"
         id="rect125-14"
         width="7.4958887"
         height="169.81905"
         x="3.441083"
         y="13.08718"
         ry="1.7327604"
         transform="matrix(0.74123883,0.67124138,0,1,0,0)"
         inkscape:export-xdpi="249.22079"
         inkscape:export-ydpi="249.22079" />
      <rect
         style="fill:#000000;stroke:#ffffff;stroke-width:1.59939;stroke-miterlimit:4;stroke-dasharray:none;stroke-opacity:1"
         id="rect125-3"
         width="7.4958887"
         height="169.81905"
         x="-26.542498"
         y="13.08718"
         ry="1.7327604"
         transform="matrix(0.74123883,0.67124138,0,1,0,0)"
         inkscape:export-xdpi="249.22079"
         inkscape:export-ydpi="249.22079" />
      <rect
         style="fill:#000000;stroke:#ffffff;stroke-width:1.59939;stroke-miterlimit:4;stroke-dasharray:none;stroke-opacity:1"
         id="rect125-0"
         width="7.4958887"
         height="169.81905"
         x="-41.53429"
         y="13.08718"
         ry="1.7327604"
         transform="matrix(0.74123883,0.67124138,0,1,0,0)"
         inkscape:export-xdpi="249.22079"
         inkscape:export-ydpi="249.22079" />
      <rect
         style="fill:#000000;stroke:#ffffff;stroke-width:1.59939;stroke-miterlimit:4;stroke-dasharray:none;stroke-opacity:1"
         id="rect125-9"
         width="7.4958887"
         height="169.81905"
         x="-56.526073"
         y="13.08718"
         ry="1.7327604"
         transform="matrix(0.74123883,0.67124138,0,1,0,0)"
         inkscape:export-xdpi="249.22079"
         inkscape:export-ydpi="249.22079" />
      <rect
         style="fill:#000000;stroke:#ffffff;stroke-width:1.59939;stroke-miterlimit:4;stroke-dasharray:none;stroke-opacity:1"
         id="rect125-92"
         width="7.4958887"
         height="169.81905"
         x="-71.517845"
         y="13.08718"
         ry="1.7327604"
         transform="matrix(0.74123883,0.67124138,0,1,0,0)"
         inkscape:export-xdpi="249.22079"
         inkscape:export-ydpi="249.22079" />
      <rect
         style="fill:#000000;stroke:#ffffff;stroke-width:1.59939;stroke-miterlimit:4;stroke-dasharray:none;stroke-opacity:1"
         id="rect3800"
         width="7.4958887"
         height="169.81905"
         x="-116.95043"
         y="33.520306"
         ry="1.7327604"
         transform="matrix(-0.74123883,0.67124138,0,1,0,0)"
         inkscape:export-xdpi="249.22079"
         inkscape:export-ydpi="249.22079" />
      <rect
         style="fill:#000000;stroke:#ffffff;stroke-width:1.59939;stroke-miterlimit:4;stroke-dasharray:none;stroke-opacity:1"
         id="rect3802"
         width="7.4958887"
         height="169.81905"
         x="-41.991508"
         y="33.520306"
         ry="1.7327604"
         transform="matrix(-0.74123883,0.67124138,0,1,0,0)"
         inkscape:export-xdpi="249.22079"
         inkscape:export-ydpi="249.22079" />
      <rect
         style="fill:#000000;stroke:#ffffff;stroke-width:1.59939;stroke-miterlimit:4;stroke-dasharray:none;stroke-opacity:1"
         id="rect3804"
         width="7.4958887"
         height="169.81905"
         x="-26.999716"
         y="33.520306"
         ry="1.7327604"
         transform="matrix(-0.74123883,0.67124138,0,1,0,0)"
         inkscape:export-xdpi="249.22079"
         inkscape:export-ydpi="249.22079" />
      <rect
         style="fill:#000000;stroke:#ffffff;stroke-width:1.59939;stroke-miterlimit:4;stroke-dasharray:none;stroke-opacity:1"
         id="rect3806"
         width="7.4958887"
         height="169.81905"
         x="-56.983299"
         y="33.520306"
         ry="1.7327604"
         transform="matrix(-0.74123883,0.67124138,0,1,0,0)"
         inkscape:export-xdpi="249.22079"
         inkscape:export-ydpi="249.22079" />
      <rect
         style="fill:#000000;stroke:#ffffff;stroke-width:1.59939;stroke-miterlimit:4;stroke-dasharray:none;stroke-opacity:1"
         id="rect3808"
         width="7.4958887"
         height="169.81905"
         x="-71.97509"
         y="33.520306"
         ry="1.7327604"
         transform="matrix(-0.74123883,0.67124138,0,1,0,0)"
         inkscape:export-xdpi="249.22079"
         inkscape:export-ydpi="249.22079" />
      <rect
         style="fill:#000000;stroke:#ffffff;stroke-width:1.59939;stroke-miterlimit:4;stroke-dasharray:none;stroke-opacity:1"
         id="rect3810"
         width="7.4958887"
         height="169.81905"
         x="-86.966873"
         y="33.520306"
         ry="1.7327604"
         transform="matrix(-0.74123883,0.67124138,0,1,0,0)"
         inkscape:export-xdpi="249.22079"
         inkscape:export-ydpi="249.22079" />
      <rect
         style="fill:#000000;stroke:#ffffff;stroke-width:1.59939;stroke-miterlimit:4;stroke-dasharray:none;stroke-opacity:1"
         id="rect3812"
         width="7.4958887"
         height="169.81905"
         x="-101.95865"
         y="33.520306"
         ry="1.7327604"
         transform="matrix(-0.74123883,0.67124138,0,1,0,0)"
         inkscape:export-xdpi="249.22079"
         inkscape:export-ydpi="249.22079" />
    </g>
  </g>
  <g
     inkscape:groupmode="layer"
     id="layer4"
     inkscape:label="Layer 4"
     style="display:inline;opacity:1">
    <g
       id="g5859"
       style="display:inline;fill:#333333;stroke:#000000;stroke-width:0;stroke-linejoin:miter;stroke-miterlimit:4;stroke-dasharray:none;stroke-dashoffset:0;stroke-opacity:1;fill-opacity:1"
       inkscape:export-xdpi="249.22079"
       inkscape:export-ydpi="249.22079">
      <rect
         style="fill:#333333;stroke:#000000;stroke-width:0;stroke-linejoin:miter;stroke-miterlimit:4;stroke-dasharray:none;stroke-dashoffset:0;stroke-opacity:1;fill-opacity:1"
         id="rect5600"
         width="86.949104"
         height="115.8708"
         x="-102.33311"
         y="60.919933"
         ry="1.1822958"
         transform="matrix(-0.73335521,0.67984567,0,1,0,0)" />
      <rect
         style="fill:#333333;stroke:#000000;stroke-width:0;stroke-linejoin:miter;stroke-miterlimit:4;stroke-dasharray:none;stroke-dashoffset:0;stroke-opacity:1;fill-opacity:1"
         id="rect5700"
         width="86.949104"
         height="115.8708"
         x="-102.33311"
         y="60.919933"
         ry="1.1822958"
         transform="matrix(-0.73335521,0.67984567,0,1,0,0)" />
      <rect
         style="fill:#333333;stroke:#000000;stroke-width:0;stroke-linejoin:miter;stroke-miterlimit:4;stroke-dasharray:none;stroke-dashoffset:0;stroke-opacity:1;fill-opacity:1"
         id="rect5807"
         width="86.949104"
         height="115.8708"
         x="-71.565063"
         y="40.002411"
         ry="1.1822958"
         transform="matrix(0.73335521,0.67984567,0,1,0,0)" />
      <rect
         style="fill:#333333;stroke:#000000;stroke-width:0;stroke-linejoin:miter;stroke-miterlimit:4;stroke-dasharray:none;stroke-dashoffset:0;stroke-opacity:1;fill-opacity:1"
         id="rect5809"
         width="86.949104"
         height="115.8708"
         x="-71.565063"
         y="40.002411"
         ry="1.1822958"
         transform="matrix(0.73335521,0.67984567,0,1,0,0)" />
    </g>
  </g>
  <g
     inkscape:groupmode="layer"
     id="layer5"
     inkscape:label="Layer 5"
     style="display:inline;opacity:1;filter:url(#filter257)">
    <circle
       style="fill:#000000;stroke:none;stroke-width:1.377;stroke-miterlimit:4;stroke-dasharray:none;stroke-opacity:1;fill-opacity:1"
       id="path5361"
       cx="11.599498"
       cy="81.570656"
       r="69.222809"
       inkscape:export-xdpi="249.22079"
       inkscape:export-ydpi="249.22079" />
  </g>
  <g
     inkscape:groupmode="layer"
     id="layer6"
     inkscape:label="Layer 6"
     style="display:inline;">
    <circle
       style="display:inline;opacity:1;fill:#cccccc;stroke:none;stroke-width:1.26536;stroke-miterlimit:4;stroke-dasharray:none;stroke-opacity:1;fill-opacity:1"
       id="circle13930"
       cx="11.599498"
       cy="81.570656"
       r="63.610149"
       inkscape:export-xdpi="249.22079"
       inkscape:export-ydpi="249.22079" />
  </g>
  <g
     inkscape:groupmode="layer"
     id="layer7"
     inkscape:label="Layer 7"
     style="display:inline;opacity:1">
    <circle
       style="display:inline;opacity:1;fill:#000000;stroke:none;stroke-width:1.02717;stroke-miterlimit:4;stroke-dasharray:none;stroke-opacity:1;fill-opacity:1"
       id="circle13950"
       cx="11.599498"
       cy="81.570656"
       r="51.636475"
       inkscape:export-xdpi="249.22079"
       inkscape:export-ydpi="249.22079" />
    <path
       style="fill:#550000;stroke-width:0.353553"
       d="m 175.25048,399.65354 c -6.05266,-1.78633 -12.49936,-6.1416 -19.66181,-13.28312 l -4.62786,-4.61435 -0.20542,-5.29413 c -0.22883,-5.8972 -0.94447,-8.93957 -2.23633,-9.50717 l -0.73731,-0.32395 -0.23481,-46.3451 c -0.12915,-25.4898 -0.23488,-64.76081 -0.23496,-87.2689 l -1.5e-4,-40.9238 4.68458,-0.0201 c 9.88552,-0.0424 12.96727,0.0594 17.52348,0.5787 4.97707,0.56726 10.28171,1.76005 12.84381,2.88804 l 1.54091,0.67839 -2.83727,-0.1588 c -3.31585,-0.1856 -6.16723,0.43228 -9.30543,2.01644 -2.01527,1.01731 -6.69769,4.52022 -7.88129,5.89597 -0.53353,0.62016 -0.55708,6.20532 -0.30265,71.78664 l 0.27589,71.11417 0.95813,3.30882 c 1.96917,6.80035 5.16478,12.12992 8.11154,13.52825 4.77178,2.26436 10.71333,-2.78025 16.04743,-13.62487 l 1.80299,-3.66562 4.96526,-63.63961 c 2.73089,-35.00179 5.05365,-64.31886 5.16169,-65.14905 0.10803,-0.8302 0.34692,-1.41644 0.53085,-1.30276 0.62279,0.3849 4.61516,7.38317 6.84837,12.00459 4.07046,8.4234 8.14304,19.12594 12.0586,31.68943 l 2.35461,7.55499 -0.2249,4.94975 c -0.30418,6.69439 -1.11485,17.80619 -1.98613,27.22361 -5.40896,58.46383 -16.94124,92.60556 -33.57249,99.39247 -3.12814,1.27654 -8.29782,1.50314 -11.65933,0.51105 z"
       id="path261"
       transform="scale(0.26458333)"
       inkscape:export-xdpi="249.22079"
       inkscape:export-ydpi="249.22079" />
    <path
       style="fill:#550000;stroke-width:0.353553"
       d="m 175.25048,399.65354 c -6.05266,-1.78633 -12.49936,-6.1416 -19.66181,-13.28312 l -4.62786,-4.61435 -0.20542,-5.29413 c -0.22883,-5.8972 -0.94447,-8.93957 -2.23633,-9.50717 l -0.73731,-0.32395 -0.23481,-46.3451 c -0.12915,-25.4898 -0.23488,-64.76081 -0.23496,-87.2689 l -1.5e-4,-40.9238 4.68458,-0.0201 c 9.88552,-0.0424 12.96727,0.0594 17.52348,0.5787 4.97707,0.56726 10.28171,1.76005 12.84381,2.88804 l 1.54091,0.67839 -2.83727,-0.1588 c -3.31585,-0.1856 -6.16723,0.43228 -9.30543,2.01644 -2.01527,1.01731 -6.69769,4.52022 -7.88129,5.89597 -0.53353,0.62016 -0.55708,6.20532 -0.30265,71.78664 l 0.27589,71.11417 0.95813,3.30882 c 1.96917,6.80035 5.16478,12.12992 8.11154,13.52825 4.77178,2.26436 10.71333,-2.78025 16.04743,-13.62487 l 1.80299,-3.66562 4.96526,-63.63961 c 2.73089,-35.00179 5.05365,-64.31886 5.16169,-65.14905 0.10803,-0.8302 0.34692,-1.41644 0.53085,-1.30276 0.62279,0.3849 4.61516,7.38317 6.84837,12.00459 4.07046,8.4234 8.14304,19.12594 12.0586,31.68943 l 2.35461,7.55499 -0.2249,4.94975 c -0.30418,6.69439 -1.11485,17.80619 -1.98613,27.22361 -5.40896,58.46383 -16.94124,92.60556 -33.57249,99.39247 -3.12814,1.27654 -8.29782,1.50314 -11.65933,0.51105 z"
       id="path263"
       transform="scale(0.26458333)"
       inkscape:export-xdpi="249.22079"
       inkscape:export-ydpi="249.22079" />
    <path
       style="fill:#550000;stroke-width:0.353553"
       d="m 175.25048,399.65354 c -6.05266,-1.78633 -12.49936,-6.1416 -19.66181,-13.28312 l -4.62786,-4.61435 -0.20542,-5.29413 c -0.22883,-5.8972 -0.94447,-8.93957 -2.23633,-9.50717 l -0.73731,-0.32395 -0.23481,-46.3451 c -0.12915,-25.4898 -0.23488,-64.76081 -0.23496,-87.2689 l -1.5e-4,-40.9238 4.68458,-0.0201 c 9.88552,-0.0424 12.96727,0.0594 17.52348,0.5787 4.97707,0.56726 10.28171,1.76005 12.84381,2.88804 l 1.54091,0.67839 -2.83727,-0.1588 c -3.31585,-0.1856 -6.16723,0.43228 -9.30543,2.01644 -2.01527,1.01731 -6.69769,4.52022 -7.88129,5.89597 -0.53353,0.62016 -0.55708,6.20532 -0.30265,71.78664 l 0.27589,71.11417 0.95813,3.30882 c 1.96917,6.80035 5.16478,12.12992 8.11154,13.52825 4.77178,2.26436 10.71333,-2.78025 16.04743,-13.62487 l 1.80299,-3.66562 4.96526,-63.63961 c 2.73089,-35.00179 5.05365,-64.31886 5.16169,-65.14905 0.10803,-0.8302 0.34692,-1.41644 0.53085,-1.30276 0.62279,0.3849 4.61516,7.38317 6.84837,12.00459 4.07046,8.4234 8.14304,19.12594 12.0586,31.68943 l 2.35461,7.55499 -0.2249,4.94975 c -0.30418,6.69439 -1.11485,17.80619 -1.98613,27.22361 -5.40896,58.46383 -16.94124,92.60556 -33.57249,99.39247 -3.12814,1.27654 -8.29782,1.50314 -11.65933,0.51105 z"
       id="path265"
       transform="scale(0.26458333)"
       inkscape:export-xdpi="249.22079"
       inkscape:export-ydpi="249.22079" />
  </g>
  <g
     inkscape:groupmode="layer"
     id="layer8"
     inkscape:label="Layer 8"
     style="display:inline;opacity:1">
    <circle
       style="display:inline;opacity:1;fill:#ffffff;stroke:none;stroke-width:0.967624;stroke-miterlimit:4;stroke-dasharray:none;stroke-opacity:1;fill-opacity:1"
       id="circle73"
       cx="11.599498"
       cy="81.570656"
       r="48.643055"
       inkscape:export-xdpi="249.22079"
       inkscape:export-ydpi="249.22079" />
    <rect
       style="fill:#550000;fill-opacity:1;stroke:none;stroke-width:0.587985;stroke-opacity:1"
       id="rect1240"
       width="1.8520833"
       height="45.640625"
       x="38.232292"
       y="50.006248"
       ry="0.21000287"
       inkscape:export-xdpi="249.22079"
       inkscape:export-ydpi="249.22079" />
  </g>
  <g
     inkscape:groupmode="layer"
     id="layer9"
     inkscape:label="Layer 9"
     style="display:inline">
    <path
       style="fill:#800000;stroke-width:0.0883883"
       d=""
       id="path237"
       transform="scale(0.26458333)" />
    <path
       style="fill:#800000;stroke-width:0.0883883"
       d=""
       id="path239"
       transform="scale(0.26458333)" />
    <path
       style="fill:#800000;stroke-width:0.0883883"
       d=""
       id="path241"
       transform="scale(0.26458333)" />
    <path
       style="fill:#800000;stroke-width:0.015625"
       d=""
       id="path243"
       transform="scale(0.26458333)" />
    <path
       style="fill:#800000;stroke-width:0.015625"
       d="m 203.68826,214.64291 c -0.0428,-0.11073 -0.0757,-0.17413 -0.11878,-0.22852 -0.027,-0.0341 -0.0464,-0.0647 -0.043,-0.068 0.003,-0.003 0.0529,0.0394 0.11011,0.095 l 0.10407,0.10105 -0.0201,0.0659 c -0.017,0.0556 -0.022,0.061 -0.0322,0.0346 z"
       id="path245"
       transform="scale(0.26458333)"
       inkscape:export-xdpi="249.22079"
       inkscape:export-ydpi="249.22079" />
    <path
       style="fill:#800000;stroke-width:0.015625"
       d="m 203.37471,214.19648 c -0.0338,-0.0347 -0.10989,-0.0873 -0.16906,-0.1169 l -0.10756,-0.0539 0.0841,0.001 0.0841,0.001 0.0918,0.10902 c 0.10193,0.12109 0.11207,0.15754 0.0166,0.0597 z"
       id="path247"
       transform="scale(0.26458333)"
       inkscape:export-xdpi="249.22079"
       inkscape:export-ydpi="249.22079" />
    <path
       style="fill:#800000;stroke-width:0.015625"
       d="m 201.65538,213.97565 c -0.14522,-0.24271 -0.26618,-0.44615 -0.2688,-0.4521 -0.004,-0.009 1.09003,2e-5 1.1016,0.009 0.002,0.001 0.007,0.0689 0.0115,0.15026 0.008,0.14142 0.007,0.1451 -0.0133,0.0833 -0.0362,-0.1077 -0.0556,-0.13227 -0.13153,-0.16645 -0.067,-0.0301 -0.10189,-0.0329 -0.43225,-0.0337 -0.37549,-9.2e-4 -0.42969,0.007 -0.42969,0.0668 0,0.0152 0.0409,0.094 0.0909,0.17523 0.15706,0.25516 0.35029,0.59452 0.34279,0.60202 -0.004,0.004 -0.12601,-0.19138 -0.27123,-0.43408 z"
       id="path249"
       transform="scale(0.26458333)"
       inkscape:export-xdpi="249.22079"
       inkscape:export-ydpi="249.22079" />
    <path
       style="fill:#800000;stroke-width:0.015625"
       d="m 203.99994,214.58165 c 0.005,-0.0423 0.0108,-0.0789 0.0132,-0.0814 0.002,-0.002 0.0991,0.004 0.21477,0.0151 l 0.21026,0.0196 -0.16406,0.0103 c -0.20114,0.0126 -0.22909,0.0204 -0.25919,0.0723 -0.0231,0.0399 -0.0235,0.0389 -0.015,-0.0359 z"
       id="path251"
       transform="scale(0.26458333)"
       inkscape:export-xdpi="249.22079"
       inkscape:export-ydpi="249.22079" />
    <path
       style="fill:#800000;stroke-width:0.015625"
       d=""
       id="path253"
       transform="scale(0.26458333)" />
    <path
       style="fill:#800000;stroke-width:0.015625"
       d="m 203.50854,215.71748 c -0.25352,-0.002 -0.475,-0.0102 -0.49219,-0.0177 -0.0172,-0.008 -0.0675,-0.0296 -0.11192,-0.049 -0.13814,-0.0605 -0.27677,-0.22792 -0.31699,-0.38283 -0.0165,-0.0634 -0.023,-0.22272 -0.009,-0.20827 0.004,0.004 0.0155,0.0495 0.0248,0.10026 0.0368,0.20069 0.2289,0.44855 0.3814,0.492 0.10965,0.0312 0.60913,0.0251 1.22575,-0.0151 0.27026,-0.0176 0.49391,-0.0295 0.497,-0.0264 0.003,0.003 -0.0165,0.0213 -0.0434,0.0405 -0.043,0.0306 -0.0838,0.0375 -0.33293,0.0558 -0.15615,0.0115 -0.30148,0.0195 -0.32296,0.0178 -0.0215,-0.002 -0.24649,-0.005 -0.5,-0.007 z"
       id="path255"
       transform="scale(0.26458333)"
       inkscape:export-xdpi="249.22079"
       inkscape:export-ydpi="249.22079" />
    <path
       style="fill:url(#linearGradient1529);fill-opacity:1;stroke-width:0.264583"
       d="m -14.147937,121.75376 c 0,-0.0475 0.101669,-0.58682 0.22593,-1.19842 0.310264,-1.5271 0.934283,-5.25278 1.220332,-7.28594 1.559715,-11.08605 1.612809,-21.001875 0.148292,-27.695118 -0.999288,-4.567021 -2.550795,-7.823028 -4.817312,-10.109661 -1.770881,-1.786593 -3.724203,-2.780551 -6.250734,-3.180715 -0.981804,-0.155503 -4.092652,-0.156204 -4.247913,-0.0011 -0.04201,0.04201 -0.12768,7.344778 -0.190375,16.228375 -0.06269,8.883597 -0.125836,17.467299 -0.140317,19.074879 l -0.02633,2.92288 -0.561266,-0.79293 c -1.747198,-2.46832 -3.983451,-6.90298 -5.425425,-10.759 -1.702967,-4.553948 -2.709114,-8.941515 -3.142626,-13.704245 -0.148515,-1.631648 -0.149759,-5.956152 -0.0021,-7.577092 0.560128,-6.152142 2.114671,-11.727095 4.786471,-17.165386 1.101833,-2.242714 2.977589,-5.34838 3.926665,-6.501331 l 0.192508,-0.23386 -0.06379,6.259248 -0.06379,6.259245 0.439793,-0.315836 c 0.699154,-0.502092 2.604319,-2.361549 3.579458,-3.493577 2.097849,-2.435373 3.384102,-4.373996 4.694933,-7.076151 1.80223,-3.715131 2.61404,-6.945072 2.783263,-11.073744 l 0.0642,-1.566444 0.233884,0.31192 c 0.482539,0.64354 2.05451,2.121355 2.761236,2.595845 2.628303,1.764625 6.093301,2.720695 9.860381,2.720695 0.68202,0 1.24004,0.0232 1.24004,0.05154 0,0.124647 -0.81977,1.962747 -1.3274,2.976332 -3.31989,6.628783 -7.757761,11.844292 -13.002071,15.280409 -0.505043,0.330909 -0.918209,0.630079 -0.918146,0.664822 6.2e-5,0.03474 0.246484,0.36459 0.547604,0.732993 0.301119,0.368404 1.029983,1.31554 1.619698,2.104747 8.112045,10.856233 13.855635,22.426293 16.07394499,32.37985 0.74935,3.36234 1.05473001,5.97837 1.06679001,9.13883 0.008,2.15723 -0.004,2.32442 -0.20063001,2.84675 -0.32922,0.87252 -0.76001,1.5255 -1.56458,2.37153 -2.15960999,2.27093 -5.99416999,3.82621 -11.32224299,4.59226 -2.054665,0.29541 -2.198292,0.3096 -2.198292,0.21729 z"
       id="path267"
       inkscape:export-xdpi="249.22079"
       inkscape:export-ydpi="249.22079" />
    <g
       id="g1496"
       style="stroke:none;stroke-opacity:1;fill-opacity:1;fill:url(#linearGradient1543)"
       inkscape:export-xdpi="249.22079"
       inkscape:export-ydpi="249.22079">
      <path
         style="fill:url(#linearGradient1561);fill-opacity:1.0;stroke-width:0.264583;stroke:none;stroke-opacity:1"
         d="m 29.068637,104.63469 c -0.337397,-0.11502 -0.856925,-0.35598 -1.154507,-0.53546 -0.683143,-0.41203 -1.793076,-1.56624 -2.408182,-2.50424 -3.962007,-6.041874 -6.259277,-20.456228 -6.504757,-40.814473 l -0.05932,-4.919832 0.307021,-0.0614 c 0.427465,-0.08549 5.708434,-0.0774 5.712589,0.0088 0.0018,0.03859 0.625747,7.902715 1.386415,17.475837 l 1.383032,17.405684 0.299984,0.64106 c 1.091423,2.33231 2.638388,3.97244 3.749773,3.9756 0.3775,0.001 1.015712,-0.28731 1.293651,-0.58456 0.550648,-0.58896 1.11483,-1.80657 1.549165,-3.34344 l 0.22471,-0.79512 0.05766,-18.770719 0.05765,-18.770716 -0.543483,-0.503172 c -1.387994,-1.285036 -2.67721,-1.823196 -4.16233,-1.737484 l -0.762711,0.04402 0.420949,-0.181682 c 1.395547,-0.602321 3.756538,-0.919305 6.852343,-0.91999 1.183037,-2.65e-4 2.162381,0.01188 2.176317,0.02697 0.01394,0.01511 0.05636,10.408023 0.09427,23.095394 l 0.06893,23.067959 -0.200596,0.0525 c -0.116563,0.0305 -0.260657,0.19621 -0.343961,0.39558 -0.179697,0.43007 -0.351645,2.27013 -0.273373,2.92545 l 0.05878,0.49214 -1.293096,1.291534 c -0.711202,0.71033 -1.671949,1.57345 -2.134994,1.91807 -2.175809,1.61927 -4.211802,2.18491 -5.85193,1.62577 z"
         id="path269" />
      <path
         style="fill:url(#linearGradient1559);fill-opacity:1;stroke-width:0.0935442;stroke:none;stroke-opacity:1"
         d="m 46.375573,104.67097 c -1.601433,-0.47264 -3.307122,-1.62497 -5.202187,-3.5145 l -1.224455,-1.220877 -0.05435,-1.400727 c -0.06054,-1.56031 -0.249891,-2.36527 -0.591695,-2.51544 l -0.19508,-0.0857 -0.06213,-12.262136 c -0.03417,-6.744176 -0.06214,-17.134631 -0.06217,-23.089896 l -3.9e-5,-10.827755 1.239462,-0.0053 c 2.615543,-0.01122 3.430923,0.01572 4.63642,0.153115 1.31685,0.150087 2.720369,0.46568 3.398258,0.764127 l 0.407699,0.179491 -0.750694,-0.04202 c -0.877319,-0.04911 -1.631746,0.114374 -2.462062,0.533516 -0.533206,0.269164 -1.772097,1.195975 -2.085258,1.559976 -0.141163,0.164084 -0.147394,1.641824 -0.08008,18.993548 l 0.073,18.815624 0.253505,0.875458 c 0.52101,1.79926 1.366515,3.209375 2.146179,3.57935 1.262533,0.599112 2.834568,-0.735608 4.245882,-3.604914 l 0.477041,-0.969862 1.313725,-16.837979 c 0.722548,-9.260891 1.337112,-17.017699 1.365697,-17.237353 0.02858,-0.219657 0.09179,-0.374766 0.140454,-0.344689 0.16478,0.101839 1.221095,1.953464 1.811965,3.176215 1.076976,2.228691 2.154513,5.060405 3.190505,8.384495 l 0.62299,1.998924 -0.0595,1.309621 c -0.08048,1.771224 -0.29497,4.711221 -0.525497,7.202914 -1.43112,15.468555 -4.482369,24.501884 -8.882721,26.297594 -0.827653,0.33775 -2.195465,0.3977 -3.084864,0.13521 z"
         id="path271" />
    </g>
    <path
       style="fill:none;stroke:#000000;stroke-width:0.264583px;stroke-linecap:butt;stroke-linejoin:miter;stroke-opacity:1"
       d="M 6.0803816,46.023813 Z"
       id="path1207"
       inkscape:export-xdpi="249.22079"
       inkscape:export-ydpi="249.22079" />
    <g
       id="g1506"
       style="fill:#000000;fill-opacity:1"
       inkscape:export-xdpi="249.22079"
       inkscape:export-ydpi="249.22079">
      <path
         style="fill:#000000;stroke:none;stroke-width:0.264583px;stroke-linecap:butt;stroke-linejoin:miter;stroke-opacity:1;fill-opacity:1"
         d="m -15.455428,41.049163 c 0,0 -0.590611,-6.036641 7.0114591,-3.96875 7.60206988,2.067891 22.7210799,10.055503 38.4307279,-0.463021 0,0 4.980368,-0.05498 6.416146,3.108854 0,0 -19.044884,16.273211 -51.858333,1.322917 z"
         id="path1203" />
      <path
         style="fill:#000000;stroke:none;stroke-width:0.264583px;stroke-linecap:butt;stroke-linejoin:miter;stroke-opacity:1;fill-opacity:1"
         d="m 6.0803816,46.023813 c 0,0 10.3228404,73.770437 -15.34128,79.886857 0,0 25.8527004,12.82401 40.9724204,-0.18708 0,0 -25.5068404,5.74695 -15.24772,-79.699777 0,0 -6.41971,-2.924104 -10.3834204,0 z"
         id="path1238" />
    </g>
  </g>
  <g
     inkscape:groupmode="layer"
     id="layer10"
     inkscape:label="Layer 10"
     style="display:none" />
  <g
     inkscape:groupmode="layer"
     id="layer11"
     inkscape:label="Layer 11"
     style="display:none" />
  <g
     inkscape:groupmode="layer"
     id="layer12"
     inkscape:label="Layer 12"
     style="display:none" />
</svg>
